<svg width="198" height="40" viewBox="0 0 198 40" fill="none" xmlns="http://www.w3.org/2000/svg">
<path d="M34.1422 5.85781C30.3647 2.08031 25.3422 0 20 0C14.6578 0 9.63531 2.08031 5.85781 5.85781C2.08031 9.63531 0 14.6578 0 20C0 25.3422 2.08039 30.3646 5.85781 34.1422C9.63523 37.9198 14.6578 40 20 40C25.3422 40 30.3647 37.9197 34.1422 34.1422C37.9197 30.3647 40 25.3422 40 20C40 14.6578 37.9196 9.63539 34.1422 5.85781Z" fill="#33CC95"/>
<g clip-path="url(#clip0_35212_417)">
<path d="M20.5714 8V33.1429" stroke="white" stroke-width="2" stroke-linecap="round" stroke-linejoin="round"/>
<path d="M26.2857 12.5714H17.7143C16.6534 12.5714 15.636 12.9929 14.8859 13.743C14.1357 14.4931 13.7143 15.5106 13.7143 16.5714C13.7143 17.6323 14.1357 18.6497 14.8859 19.3999C15.636 20.15 16.6534 20.5714 17.7143 20.5714H23.4286C24.4894 20.5714 25.5069 20.9929 26.257 21.743C27.0072 22.4932 27.4286 23.5106 27.4286 24.5714C27.4286 25.6323 27.0072 26.6497 26.257 27.3999C25.5069 28.15 24.4894 28.5714 23.4286 28.5714H13.7143" stroke="white" stroke-width="2" stroke-linecap="round" stroke-linejoin="round"/>
</g>
<path d="M64.911 16.456C64.911 17.968 64.071 18.952 62.199 18.952H59.391V14.032H62.199C64.071 14.032 64.911 14.968 64.911 16.456ZM56.031 11.248V28H59.391V21.472H60.975L64.671 28H68.559L64.551 21.208C67.239 20.488 68.367 18.424 68.367 16.384C68.367 13.576 66.351 11.248 62.319 11.248H56.031ZM71.406 28H74.766V17.104L79.278 28H81.822L86.31 17.104V28H89.67V11.248H85.878L80.55 23.704L75.222 11.248H71.406V28ZM109.336 19.576C109.336 14.56 105.544 11.008 100.768 11.008C96.0399 11.008 92.1759 14.56 92.1759 19.576C92.1759 24.616 96.0399 28.168 100.768 28.168C105.52 28.168 109.336 24.616 109.336 19.576ZM95.6319 19.576C95.6319 16.168 97.7199 14.032 100.768 14.032C103.792 14.032 105.88 16.168 105.88 19.576C105.88 22.984 103.792 25.168 100.768 25.168C97.7199 25.168 95.6319 22.984 95.6319 19.576ZM117.554 28H120.914V17.104L125.426 28H127.97L132.458 17.104V28H135.818V11.248H132.026L126.698 23.704L121.37 11.248H117.554V28ZM151.98 21.352C151.98 17.152 148.98 14.488 145.14 14.488C141.3 14.488 138.3 17.152 138.3 21.352C138.3 25.528 141.204 28.216 145.044 28.216C148.908 28.216 151.98 25.528 151.98 21.352ZM141.708 21.352C141.708 18.688 143.316 17.416 145.092 17.416C146.868 17.416 148.524 18.688 148.524 21.352C148.524 23.992 146.82 25.288 145.044 25.288C143.244 25.288 141.708 23.992 141.708 21.352ZM163.757 28H167.117V20.2C167.117 16.528 164.909 14.512 161.813 14.512C160.109 14.512 158.669 15.232 157.805 16.36V14.704H154.445V28H157.805V20.656C157.805 18.52 158.981 17.368 160.805 17.368C162.581 17.368 163.757 18.52 163.757 20.656V28ZM176.024 17.248C177.752 17.248 179.144 18.352 179.192 20.104H172.88C173.144 18.28 174.416 17.248 176.024 17.248ZM182.336 23.824H178.712C178.28 24.712 177.488 25.432 176.048 25.432C174.368 25.432 173.024 24.328 172.856 22.36H182.576C182.648 21.928 182.672 21.496 182.672 21.064C182.672 17.104 179.96 14.488 176.12 14.488C172.184 14.488 169.448 17.152 169.448 21.352C169.448 25.528 172.256 28.216 176.12 28.216C179.408 28.216 181.616 26.272 182.336 23.824ZM190.789 23.992L187.357 14.704H183.589L188.917 27.664L186.037 34.288H189.613L197.845 14.704H194.269L190.789 23.992Z" fill="white"/>
<defs>
<clipPath id="clip0_35212_417">
<rect width="27.4286" height="27.4286" fill="white" transform="translate(6.85715 6.85714)"/>
</clipPath>
</defs>
</svg>
